<svg width="60" height="58" viewBox="0 0 60 58" fill="none" xmlns="http://www.w3.org/2000/svg">
  <path d="M58.701 28.9989C58.701 44.4634 45.9296 56.9983 30.1733 56.9983C14.417 56.9983 1.64557 44.4634 1.64557 28.9989C1.64557 13.5344 14.417 0.999512 30.1733 0.999512C45.9296 0.999512 58.701 13.5344 58.701 28.9989Z" fill="#8B8E98"/>
  <path d="M30.1733 51.9984C17.2307 51.9984 6.73981 41.7017 6.73981 28.9989C6.73981 16.296 17.2307 5.99939 30.1733 5.99939C43.1158 5.99939 53.6068 16.296 53.6068 28.9989C53.6068 41.7017 43.1158 51.9984 30.1733 51.9984Z" fill="#7E8189"/>
  <path d="M35.3471 41.3501C37.0784 43.1704 38.129 45.5141 38.3241 47.9984V53.2483C38.3241 53.7991 38.5589 55.3772 39.2394 55.5569L30.1733 57.1779L21.0037 55.5686C21.736 55.4084 22.0225 53.7991 22.0225 53.2483C22.0225 52.6975 22.0225 52.3382 22.0225 49.9984C14.0866 51.6898 12.4469 45.6977 12.4469 45.6977C11.1415 42.4673 9.27498 41.6001 9.27498 41.6001C6.68806 39.8697 9.46999 39.897 9.46999 39.897C11.3127 40.1392 12.9404 41.2095 13.8717 42.7876C16.4188 47.057 20.4345 46.7094 22.0225 45.9985C22.2892 44.1899 24.1637 42.0689 24.9756 41.3697C18.6396 40.6587 11.9773 38.2604 11.9773 27.5301C11.9256 24.745 12.9683 22.0498 14.8906 19.999C14.023 17.585 14.1264 14.9327 15.1771 12.589C18.3769 -13.0784 17.569 11.8391 23.0215 15.4601C27.6898 14.2101 32.6169 14.2101 37.2853 15.4601C42.7258 11.8391 45.1217 12.589 45.1217 12.589C46.1883 14.9288 46.3077 17.5772 45.456 19.999C47.3783 22.042 48.425 24.7294 48.3812 27.5106C48.3693 38.2877 41.707 40.6587 35.3471 41.3501Z" fill="#FAEFDE"/>
  <path d="M30.1733 -0.000488281C15.7621 0.00732455 3.46036 10.218 1.05652 24.1591C-1.34732 38.1041 6.84723 51.7171 20.4544 56.3772C20.6176 56.4944 20.8126 56.5608 21.0156 56.5686C32.1115 60.1232 44.3018 56.928 52.1183 48.4203C59.9387 39.9088 61.9167 27.6786 57.1727 17.2101C52.4287 6.74155 41.8462 -0.000488281 30.1733 -0.000488281ZM22.7349 54.9983C22.9219 54.4358 23.0254 53.8499 23.0413 53.2601V52.7171C23.0413 52.2679 23.0413 51.6585 23.0413 49.9984C23.0493 49.6937 22.914 49.4008 22.6712 49.2055C22.4324 49.0102 22.114 48.9359 21.8076 48.9984C14.9622 50.4594 13.4857 45.6196 13.422 45.4204V45.3071C12.829 43.6431 11.7703 42.1744 10.3654 41.0689C11.4559 41.5064 12.3673 42.2798 12.9762 43.2681C15.6666 47.7993 20.1082 47.9203 22.4523 46.8891C22.7707 46.7485 22.9936 46.4594 23.0413 46.1196C23.511 44.5728 24.4144 43.1861 25.6481 42.1197C25.9506 41.8541 26.0621 41.4439 25.9387 41.065C25.8153 40.69 25.481 40.4205 25.079 40.3775C19.0973 39.7096 12.9842 37.6588 12.9842 27.538C12.9444 25.0068 13.8996 22.5576 15.6547 20.6983C15.9452 20.4248 16.0447 20.0108 15.9094 19.6397C15.1731 17.6749 15.1731 15.5148 15.9094 13.55C16.777 13.55 18.8863 13.9406 22.4523 16.3077C22.6991 16.4757 23.0055 16.5265 23.296 16.4484C27.7933 15.2414 32.5333 15.2414 37.0306 16.4484C37.3211 16.5265 37.6276 16.4757 37.8743 16.3077C41.4522 13.9289 43.5695 13.5695 44.4053 13.5383C45.1654 15.4992 45.1893 17.6632 44.4769 19.6397C44.3297 19.9952 44.4053 20.4053 44.6719 20.6905C46.4231 22.5459 47.3743 24.999 47.3305 27.5302C47.3305 37.6588 41.2174 39.6979 35.2158 40.3502C34.8138 40.3932 34.4795 40.6666 34.3601 41.0455C34.2407 41.4283 34.3601 41.8384 34.6665 42.1002C36.1709 43.7329 37.0982 45.8032 37.3052 47.9985V53.2483C37.3171 53.8421 37.4166 54.4319 37.5997 54.9983C32.7403 56.3459 27.5943 56.3459 22.7349 54.9983ZM39.5459 54.3968C39.4265 54.0335 39.3588 53.6507 39.3429 53.2679V47.9985C39.2235 45.8852 38.5191 43.8384 37.3052 42.0884C42.9606 41.1471 49.4199 38.2682 49.4199 27.5302C49.4637 24.706 48.4727 21.9639 46.626 19.7999C47.3424 17.296 47.1713 14.632 46.1405 12.2375C46.0251 11.9641 45.7943 11.7493 45.5077 11.6594C45.2212 11.5696 42.6024 10.8977 37.1739 14.3976C32.605 13.2531 27.8212 13.2531 23.2562 14.3976C17.8237 10.8977 15.205 11.5696 14.9224 11.6594C14.6319 11.7493 14.401 11.9641 14.2896 12.2375C13.2548 14.632 13.0837 17.296 13.8001 19.7999C11.9534 21.9639 10.9624 24.706 11.0102 27.5302C11.0102 38.1784 17.3581 41.108 22.9617 42.0884C22.1697 43.022 21.5688 44.0923 21.1867 45.2485C19.742 45.647 16.7651 45.6587 14.7791 42.3072C13.6727 40.4283 11.7266 39.1666 9.52967 38.9088C8.98044 38.9088 7.59545 38.9987 7.2691 40.0377C6.94275 41.0767 8.19641 42.0377 8.75757 42.44L8.88891 42.5103C8.95259 42.5103 10.4371 43.3072 11.5395 46.0376C11.7743 46.7485 13.8001 52.139 21.0633 51.1898C21.0633 51.9788 21.0633 52.3773 21.0633 52.6898V53.2483C21.0474 53.6351 20.9758 54.014 20.8524 54.3772C8.29591 49.9086 0.825689 37.2331 3.13401 24.3232C5.44632 11.4133 16.8725 1.99556 30.229 1.99556C43.5854 1.99556 55.0116 11.4133 57.3239 24.3232C59.6362 37.2331 52.162 49.9086 39.6095 54.3772L39.5459 54.3968Z" fill="#8D6C9F"/>
  <path d="M30.1733 34.9988C29.6121 34.9988 29.1544 35.448 29.1544 35.9988V37.9987C29.1544 38.5495 29.6121 38.9987 30.1733 38.9987C30.7344 38.9987 31.1921 38.5495 31.1921 37.9987V35.9988C31.1921 35.448 30.7344 34.9988 30.1733 34.9988Z" fill="#8D6C9F"/>
  <path d="M34.8615 37.5299C35.0088 38.0611 35.5699 38.3736 36.1112 38.2291C36.6565 38.0807 36.9748 37.5299 36.8276 36.9987L36.2863 35.0768C36.1271 34.5651 35.5779 34.2643 35.0486 34.405C34.5153 34.5456 34.1969 35.0729 34.3203 35.6002L34.8615 37.5299Z" fill="#8D6C9F"/>
  <path d="M20.7489 32.5183C20.5141 32.3855 20.2355 32.3503 19.9728 32.4167C19.7102 32.487 19.4873 32.6589 19.352 32.8894L18.3331 34.6198C18.0824 35.0925 18.2535 35.6784 18.7271 35.9479C19.2007 36.2174 19.8057 36.069 20.0962 35.6198L21.1151 33.8894C21.2544 33.6589 21.2902 33.3855 21.2225 33.1277C21.1549 32.8738 20.9837 32.6511 20.7489 32.5183Z" fill="#8D6C9F"/>
  <path d="M40.2383 35.6198C40.4134 35.944 40.7557 36.151 41.1298 36.1549C41.5039 36.1588 41.8502 35.9635 42.0332 35.6432C42.2123 35.3229 42.2044 34.9284 42.0014 34.6198L40.9826 32.8894C40.692 32.4363 40.0871 32.2917 39.6135 32.5612C39.1399 32.8269 38.9688 33.4128 39.2195 33.8893L40.2383 35.6198Z" fill="#8D6C9F"/>
  <path d="M25.294 34.3698C24.7487 34.2292 24.1955 34.5456 24.0483 35.0768L23.5189 36.9987C23.4115 37.3463 23.503 37.7291 23.7657 37.9908C24.0244 38.2525 24.4104 38.3541 24.7686 38.2565C25.1268 38.1588 25.4014 37.8737 25.485 37.5182L26.0183 35.5885C26.1576 35.0573 25.8352 34.5104 25.294 34.3698Z" fill="#8D6C9F"/>
  <path d="M40.7199 7.46032C39.9558 7.08533 39.1757 6.7494 38.3758 6.46034C37.8584 6.30409 37.3092 6.56581 37.1181 7.0658C36.9311 7.56188 37.1659 8.11655 37.6634 8.32748C38.3917 8.59701 39.1041 8.9056 39.8006 9.24934C39.9438 9.31965 40.0991 9.35871 40.2583 9.35871C40.7279 9.35481 41.1378 9.03841 41.2453 8.5892C41.3527 8.14389 41.1378 7.67906 40.7199 7.46813V7.46032Z" fill="#8D6C9F"/>
  <path d="M33.8904 5.28847C28.6291 4.47208 23.2443 5.42909 18.6077 8.01106C18.2058 8.23372 18.0068 8.69855 18.1262 9.13604C18.2456 9.57744 18.6555 9.88212 19.1172 9.87821C19.2923 9.87821 19.4674 9.83524 19.6186 9.74931C23.8492 7.3978 28.7723 6.52282 33.576 7.26889C34.1372 7.35873 34.6665 6.97984 34.758 6.42907C34.8496 5.8783 34.4635 5.35878 33.9024 5.26894L33.8904 5.28847Z" fill="#8D6C9F"/>
</svg>
