<svg width="53" height="52" viewBox="0 0 53 52" fill="none" xmlns="http://www.w3.org/2000/svg">
  <path d="M7.13194 0.999512H45.8481C49.2231 0.999512 51.9612 3.68695 51.9612 6.99938V44.9985C51.9612 48.311 49.2231 50.9984 45.8481 50.9984H7.13194C3.75701 50.9984 1.01886 48.311 1.01886 44.9985V6.99938C1.01886 3.68695 3.75701 0.999512 7.13194 0.999512Z" fill="#58B5E8"/>
  <path d="M17.3204 16.4992C17.3204 18.4327 15.7245 19.9991 13.7544 19.9991C11.7844 19.9991 10.1885 18.4327 10.1885 16.4992C10.1885 14.5656 11.7844 12.9993 13.7544 12.9993C15.7245 12.9993 17.3204 14.5656 17.3204 16.4992Z" fill="#FAEFDE"/>
  <path d="M34.398 21.999C32.1454 21.999 29.3038 23.7802 28.0899 24.788V23.4599C28.0899 22.9053 27.6322 22.46 27.0711 22.46H21.8853C21.3202 22.46 20.8665 22.9053 20.8665 23.4599V44.4595C20.8665 45.0102 21.3202 45.4594 21.8853 45.4594H27.3855C27.9506 45.4594 28.4043 45.0102 28.4043 44.4595V33.8777C28.4043 30.7176 30.2192 28.5379 32.3683 28.5379C34.5174 28.5379 35.8029 30.9285 35.8029 34.0495V44.479C35.8029 45.0298 36.2566 45.479 36.8218 45.479H42.3219C42.8871 45.479 43.3408 45.0298 43.3408 44.479V32.7683C43.1975 27.4403 42.1508 21.999 34.398 21.999Z" fill="#FAEFDE"/>
  <path d="M10.1885 22.999H17.3204V44.9985H10.1885V22.999Z" fill="#FAEFDE"/>
  <path d="M5.09425 0.999512H47.8858C50.1384 0.999512 51.9612 2.78854 51.9612 4.99942C51.9612 6.65564 50.5921 7.99936 48.9047 7.99936H4.0754C2.38794 7.99936 1.01886 6.65564 1.01886 4.99942C1.01886 2.78854 2.84164 0.999512 5.09425 0.999512Z" fill="#65C5EF"/>
  <path d="M17.3204 21.999H10.1885C9.6273 21.999 9.16962 22.4482 9.16962 22.999V44.9985C9.16962 45.5493 9.6273 45.9985 10.1885 45.9985H17.3204C17.8816 45.9985 18.3392 45.5493 18.3392 44.9985V22.999C18.3392 22.4482 17.8816 21.999 17.3204 21.999ZM16.3015 43.9985H11.2073V23.999H16.3015V43.9985Z" fill="#8D6C9F"/>
  <path d="M34.5174 21.4404C32.5036 21.413 30.5415 22.0771 28.9775 23.3193V22.9989C28.9775 22.4482 28.5198 21.999 27.9586 21.999H21.3958C20.8346 21.999 20.377 22.4482 20.377 22.9989V44.9985C20.377 45.5492 20.8346 45.9984 21.3958 45.9984H28.2213C28.7864 45.9984 29.2401 45.5492 29.2401 44.9985V33.8893C29.2401 30.5769 30.0759 29.3387 32.2967 29.3387C34.5174 29.3387 34.8358 30.7996 34.8358 34.0573V44.9985C34.8358 45.5492 35.2895 45.9984 35.8547 45.9984H42.6881C43.2533 45.9984 43.707 45.5492 43.707 44.9985V32.7175C43.7308 27.1395 42.6404 21.4404 34.5174 21.4404ZM41.6494 43.9985H36.8934V34.0573C36.8934 31.7097 36.8934 27.3387 32.3166 27.3387C27.2223 27.3387 27.2223 32.2683 27.2223 33.8893V43.9985H22.4146V23.9989H26.9278V25.9989C26.9716 26.5692 27.4571 27.0067 28.0382 26.9989C28.4123 26.9989 28.7586 26.7957 28.9337 26.4676C30.0839 24.5419 32.221 23.3857 34.4975 23.4677C40.4793 23.4677 41.6295 27.0184 41.6295 32.7605L41.6494 43.9985Z" fill="#8D6C9F"/>
  <path d="M13.7544 11.9993C11.2232 11.9993 9.16962 14.0148 9.16962 16.4992C9.16962 18.9835 11.2232 20.9991 13.7544 20.9991C16.2856 20.9991 18.3392 18.9835 18.3392 16.4992C18.3392 14.0148 16.2856 11.9993 13.7544 11.9993ZM13.7544 19.3272C12.1625 19.3272 10.873 18.0616 10.873 16.4992C10.873 14.9367 12.1625 13.6711 13.7544 13.6711C15.3464 13.6711 16.6359 14.9367 16.6359 16.4992C16.6359 18.0616 15.3464 19.3272 13.7544 19.3272Z" fill="#8D6C9F"/>
  <path d="M45.8481 0H7.13193C3.19186 0 0 3.13274 0 6.99985V44.999C0 48.8661 3.19186 51.9989 7.13193 51.9989H45.8481C49.7882 51.9989 52.98 48.8661 52.98 44.999V6.99985C52.98 3.13274 49.7882 0 45.8481 0ZM50.9423 44.999C50.9423 47.7607 48.6619 49.9989 45.8481 49.9989H7.13193C4.31816 49.9989 2.03769 47.7607 2.03769 44.999V6.99985C2.03769 4.23819 4.31816 1.99996 7.13193 1.99996H45.8481C48.6619 1.99996 50.9423 4.23819 50.9423 6.99985V44.999Z" fill="#8D6C9F"/>
  <path d="M11.2073 9.9993C11.7685 9.9993 12.2262 9.55009 12.2262 8.99933V6.99937C12.2262 6.4486 11.7685 5.99939 11.2073 5.99939C10.6462 5.99939 10.1885 6.4486 10.1885 6.99937V8.99933C10.1885 9.55009 10.6462 9.9993 11.2073 9.9993Z" fill="#8D6C9F"/>
  <path d="M6.11309 5.99939C5.55192 5.99939 5.09424 6.4486 5.09424 6.99937V8.99933C5.09424 9.55009 5.55192 9.9993 6.11309 9.9993C6.67425 9.9993 7.13193 9.55009 7.13193 8.99933V6.99937C7.13193 6.4486 6.67425 5.99939 6.11309 5.99939Z" fill="#8D6C9F"/>
  <path d="M26.49 9.9993C27.0512 9.9993 27.5089 9.55009 27.5089 8.99933V6.99937C27.5089 6.4486 27.0512 5.99939 26.49 5.99939C25.9289 5.99939 25.4712 6.4486 25.4712 6.99937V8.99933C25.4712 9.55009 25.9289 9.9993 26.49 9.9993Z" fill="#8D6C9F"/>
  <path d="M31.5843 9.9993C32.1454 9.9993 32.6031 9.55009 32.6031 8.99933V6.99937C32.6031 6.4486 32.1454 5.99939 31.5843 5.99939C31.0231 5.99939 30.5654 6.4486 30.5654 6.99937V8.99933C30.5654 9.55009 31.0231 9.9993 31.5843 9.9993Z" fill="#8D6C9F"/>
  <path d="M36.6785 9.9993C37.2397 9.9993 37.6974 9.55009 37.6974 8.99933V6.99937C37.6974 6.4486 37.2397 5.99939 36.6785 5.99939C36.1174 5.99939 35.6597 6.4486 35.6597 6.99937V8.99933C35.6597 9.55009 36.1174 9.9993 36.6785 9.9993Z" fill="#8D6C9F"/>
  <path d="M41.7728 9.9993C42.3339 9.9993 42.7916 9.55009 42.7916 8.99933V6.99937C42.7916 6.4486 42.3339 5.99939 41.7728 5.99939C41.2116 5.99939 40.7539 6.4486 40.7539 6.99937V8.99933C40.7539 9.55009 41.2116 9.9993 41.7728 9.9993Z" fill="#8D6C9F"/>
  <path d="M46.867 5.99939C46.3058 5.99939 45.8481 6.4486 45.8481 6.99937V8.99933C45.8481 9.55009 46.3058 9.9993 46.867 9.9993C47.4281 9.9993 47.8858 9.55009 47.8858 8.99933V6.99937C47.8858 6.4486 47.4281 5.99939 46.867 5.99939Z" fill="#8D6C9F"/>
  <path d="M16.3016 9.9993C16.8627 9.9993 17.3204 9.55009 17.3204 8.99933V6.99937C17.3204 6.4486 16.8627 5.99939 16.3016 5.99939C15.7404 5.99939 15.2827 6.4486 15.2827 6.99937V8.99933C15.2827 9.55009 15.7404 9.9993 16.3016 9.9993Z" fill="#8D6C9F"/>
  <path d="M21.3958 9.9993C21.957 9.9993 22.4146 9.55009 22.4146 8.99933V6.99937C22.4146 6.4486 21.957 5.99939 21.3958 5.99939C20.8346 5.99939 20.377 6.4486 20.377 6.99937V8.99933C20.377 9.55009 20.8346 9.9993 21.3958 9.9993Z" fill="#8D6C9F"/>
</svg>
